<?xml version="1.0" encoding="utf-8"?>
<!-- Generator: Adobe Illustrator 19.0.0, SVG Export Plug-In . SVG Version: 6.00 Build 0)  -->
<svg version="1.1" id="Layer_1" xmlns="http://www.w3.org/2000/svg" xmlns:xlink="http://www.w3.org/1999/xlink" x="0px" y="0px"
	 viewBox="0 0 96 96" style="enable-background:new 0 0 96 96;" xml:space="preserve">
<style type="text/css">
	.st0{fill:#333333;}
</style>
<g id="XMLID_2_">
	<path id="XMLID_7_" class="st0" d="M58,18c-2,0.2-4.2,1.2-5.9,2.9l-6.8,6.7c-3.4,3.4-4.3,8.8-1.5,11.6l0.7,0.7l12.3-12.4
		c0.8-0.8,2-0.8,2.8-0.1l8.8,8.8c0.8,0.8,0.8,2-0.1,2.8L56,51.4l0.7,0.7c2.8,2.8,8.1,2,11.6-1.5l6.7-6.8c3.4-3.4,4-8.5,1.2-11.3
		L63.4,19.8C62,18.4,60,17.8,58,18L58,18z M53.7,36.7c-0.8,0-1.6,0.3-2.3,0.9L37.7,51.4c-1.3,1.3-1.3,3.3,0,4.6l2.3,2.3
		c1.3,1.3,3.3,1.3,4.6,0l13.8-13.8c1.3-1.3,1.3-3.3,0-4.6L56,37.7C55.4,37,54.6,36.7,53.7,36.7z M35.3,42.2c-2.5-0.1-5.5,1-7.6,3.1
		L21,52.1c-3.4,3.4-4,8.5-1.2,11.3l12.9,12.9c2.8,2.8,7.8,2.2,11.3-1.2l6.8-6.7c3.4-3.4,4.3-8.8,1.5-11.6L51.4,56L39.1,68.4
		c-0.8,0.8-2,0.8-2.8,0l-8.8-8.8c-0.8-0.8-0.8-2,0-2.8L40,44.6l-0.7-0.7C38.2,42.8,36.9,42.3,35.3,42.2L35.3,42.2z"/>
</g>
</svg>
